<?xml version="1.0" standalone="no"?><!DOCTYPE svg PUBLIC "-//W3C//DTD SVG 1.1//EN" "http://www.w3.org/Graphics/SVG/1.1/DTD/svg11.dtd"><svg t="1740817577122" class="icon" viewBox="0 0 3182 1024" version="1.1" xmlns="http://www.w3.org/2000/svg" p-id="14652" xmlns:xlink="http://www.w3.org/1999/xlink" width="49.71875" height="16"><path d="M7.8921 821.176207V208.313258L550.028467 7.971658l294.633103 94.275592v824.994965l-294.633103 88.81795L7.8921 821.176207l542.136367 65.237119V172.973833l-353.569271 82.501088v483.21611zM1422.057803 825.488222c-85.333333 0-153.673193-28.131518-205.019578-84.378644s-77.011623-129.408167-77.011623-219.499037c0-96.821431 26.158493-174.039903 78.47548-231.671328 52.332898-57.647337 123.536826-86.463049 213.627696-86.463049 83.105724 0 150.045373 27.988315 200.834856 83.949033 50.773572 55.960719 76.168314 129.12176 76.168314 219.499037 0 98.205731-26.01529 175.853813-78.061781 232.944248-52.03058 57.074523-121.722916 85.603829-209.013364 85.603828z m5.043944-558.222885c-63.23227 0-114.578656 22.801169-154.023246 68.419417-39.460501 45.602337-59.190751 105.477283-59.190752 179.624836s19.252906 133.81565 57.710983 179.004289c38.473988 45.188638 88.627012 67.782957 150.459071 67.782957 66.032693 0 118.079185-21.544161 156.139475-64.632481s57.074523-103.392877 57.074523-180.897757c0-79.461993-18.457331-140.880353-55.403817-184.255081-36.930574-43.358817-87.863261-65.046181-152.766237-65.04618zM1959.92989 169.855181c-38.903599 0-71.21984 13.254273-97.23513 39.412766-26.01529 26.158493-39.046802 61.752502-39.046802 106.797937v69.612778h-73.288333v58.936168h73.288333V815.463982h68.514886V444.61483h167.563926V815.463982h68.514886V444.61483h100.54472v-58.936168h-100.560632v-66.287277c0-60.718255 24.074088-90.981913 72.190441-90.981913 17.073031 0 32.252595 3.500528 45.665983 11.058487V177.572254c-12.299584-5.028032-28.720244-7.732985-49.707502-7.732985-38.887687 0-71.585804 13.254273-97.601094 39.412767-26.01529 26.158493-39.046802 61.752502-39.046802 106.797936v69.612779h-167.563926v-66.303189c0-60.702343 24.058176-90.966002 72.174529-90.966001 17.073031 0 32.252595 3.500528 45.665983 11.058487V177.572254c-12.299584-5.043943-29.102119-7.732985-50.073466-7.732985zM2328.885574 276.446268a43.597489 43.597489 0 0 1-31.472932-12.601902c-8.671763-8.385356-13.015601-19.014233-13.015601-31.886631 0-12.888309 4.343837-23.580832 13.015601-32.109391a43.231525 43.231525 0 0 1 31.472932-12.808752c12.58599 0 23.294425 4.26428 32.109392 12.808752 8.814967 8.52856 13.206539 19.236994 13.206538 32.109391 0 12.299584-4.391572 22.801169-13.206538 31.472932-8.814967 8.671763-19.523401 12.999689-32.109392 12.999689z m33.573249 538.890422h-68.833116v-429.769408h68.833116zM2753.499658 795.606439c-33.016347 19.857542-72.190441 29.802225-117.522282 29.802225-61.259245 0-110.728075-19.9371-148.358755-59.827211s-56.453975-91.554727-56.453974-155.057493c0-70.806141 20.287153-127.657903 60.861458-170.618932 40.574305-42.961029 94.705202-64.425632 162.424513-64.425632 37.773883 0 71.060725 7.001057 99.892349 21.00317v70.487911c-31.902542-22.371558-66.032693-33.573249-102.406364-33.573249-43.93163 0-79.955249 15.752377-108.086768 47.225309s-42.165455 72.810989-42.165454 124.014171c0 50.375785 13.206539 90.106781 39.651439 119.192989s61.895705 43.661135 106.400149 43.661135c37.487476 0 72.747343-12.458698 105.763689-37.360184zM3174.24725 617.684132h-303.432159c1.113804 47.845857 13.986202 84.776431 38.60128 110.791721 24.63099 26.031201 58.490646 39.030891 101.578967 39.030891 48.40276 0 92.891292-15.943315 133.449687-47.845858v64.632482c-37.757971 27.431413-87.704146 41.131208-149.822612 41.131208-60.718255 0-108.420909-19.50749-143.123874-58.554292s-52.03058-93.925539-52.03058-164.715768c0-66.876002 18.934676-121.372863 56.867674-163.474673s84.967369-63.168625 141.230406-63.168624c56.231214 0 99.733234 18.186836 130.521971 54.576419s46.159239 86.876748 46.15924 151.493318z m-70.503823-58.347442c-0.286407-39.730996-9.865125-70.647026-28.752066-92.748089-18.886941-22.116974-45.124992-33.15955-78.698241-33.15955-32.459444 0-60.018149 11.615389-82.676115 34.846168-22.673877 23.230779-36.660078 53.573995-41.974516 91.061471z" fill="#EB3C00" p-id="14653"></path></svg>