<?xml version="1.0" standalone="no"?><!DOCTYPE svg PUBLIC "-//W3C//DTD SVG 1.1//EN" "http://www.w3.org/Graphics/SVG/1.1/DTD/svg11.dtd"><svg t="1740816719504" class="icon" viewBox="0 0 1024 1024" version="1.1" xmlns="http://www.w3.org/2000/svg" p-id="3491" xmlns:xlink="http://www.w3.org/1999/xlink" width="16" height="16"><path d="M1011.712 527.872h-34.304v42.496h16.896V701.44c0 27.648-22.528 50.176-50.176 50.176h-132.096c-5.12 0-6.656-1.536-6.656-6.656 0.512-11.776 0.512-23.552 0-35.84 0-5.12 1.536-6.144 6.144-6.144H916.48c16.384 0 18.944-2.56 18.944-19.456v-66.048h-148.48c-24.576 0-37.888-13.312-37.888-37.376v-37.888h55.296v17.92c0 6.656 2.048 9.216 8.704 9.216h101.888c0.512 0 0.512-0.512 1.536-0.512v-41.984h-206.336c13.312-29.696 26.112-57.856 39.936-87.552H711.68v-47.616c2.048 0 4.096-0.512 6.656-0.512h48.64c4.096 0 6.144-1.536 7.68-5.12 4.096-9.216 8.192-18.432 12.8-28.16h-56.832c-4.096 0-6.144-0.512-5.632-5.12 0.512-12.8 0-25.6 0-37.888 0-3.584 1.024-5.12 5.12-5.12h12.8v-32.256h51.712v32.256c4.096 0 7.68 0.512 10.752 0 2.048-0.512 5.12-2.048 6.144-4.096 5.12-9.728 9.216-19.968 13.824-30.208 1.024-2.048 3.584-4.096 5.632-4.096 19.968-0.512 39.936 0 60.416 0 0.512 0 1.536 0.512 3.072 0.512-5.632 12.288-11.264 24.576-16.896 37.888h44.032v-31.744h54.784v32.256h16.896V358.4h-130.56c-6.656 0-9.728 2.048-11.776 7.68-3.072 8.192-7.168 16.384-11.264 25.6h167.424v48.128h-37.376c2.048 4.096 3.584 7.68 5.12 10.752 11.264 24.064 22.528 47.616 33.792 71.68 0.512 1.536 1.536 2.56 2.56 4.096 0.512 0.512 0.512 1.024 0.512 1.536z m-86.528-48.64c-5.632-11.776-10.752-22.528-15.872-33.792-1.536-3.584-3.584-5.12-7.68-5.12-22.016 0-44.032 1.024-65.536-0.512-13.312-1.024-20.48 3.072-24.576 15.872-2.56 7.68-6.656 15.36-10.24 23.04 41.472 0.512 82.432 0.512 123.904 0.512zM620.544 752.128v-48.128h11.776c7.168-0.512 11.776-4.096 11.776-11.264v-77.824c0-0.512-0.512-0.512-0.512-1.536h-50.688v138.752h-52.736V279.04h128.512c17.408 0 28.672 11.264 28.672 28.672v407.04c0 22.016-15.36 37.376-37.376 37.376h-39.424zM593.92 474.624c-0.512 1.024-0.512 1.536-0.512 1.536v73.728c0 4.096 2.048 4.096 5.12 4.096h39.936c5.12 0 6.656-1.536 6.656-6.656V480.256c0-2.048 0-4.096-0.512-6.144-17.92 0.512-34.304 0.512-50.688 0.512z m-0.512-58.368h48.128c1.024 0 2.56-3.072 2.56-4.608V342.528c0-4.096-1.536-5.12-5.12-5.12h-41.472c-1.536 0-2.56 0.512-4.096 0.512v78.336zM490.496 687.616v64.512h-220.16c-45.568 0-78.848-33.28-78.848-78.848V360.448v-8.704H12.8c0-2.048-0.512-3.584-0.512-5.12V292.352c0-3.584 0.512-5.632 5.12-5.632h244.736c1.024 0 1.536 0 3.584 0.512v364.032c0 18.944 10.24 32.256 27.648 35.328 2.56 0.512 5.12 0.512 8.192 0.512h182.272c1.024 0.512 3.584 0.512 6.656 0.512z" fill="#FF0000" p-id="3492"></path><path d="M490.496 298.496c-2.048 3.072-4.096 5.632-5.632 8.192C449.536 355.84 414.72 404.48 379.392 453.632c-3.072 4.096-3.072 6.656 0 10.752 34.816 48.64 69.632 97.28 104.96 146.432 1.536 2.048 2.56 4.096 4.608 6.656H405.504c-4.096 0-6.144-1.024-8.704-4.608-35.84-50.176-71.168-99.84-107.008-150.016-2.56-3.072-2.048-5.12 0-8.704 36.352-50.688 73.216-101.888 109.568-152.576 1.536-2.048 4.096-3.584 6.144-3.584h82.944c0.512 0 1.024 0.512 2.048 0.512zM910.848 637.44v44.544c0 1.024-2.048 2.56-3.072 3.072-1.024 0.512-2.56 0-4.096 0h-183.296v-48.128c62.976 0.512 125.952 0.512 190.464 0.512z" fill="#FF0000" p-id="3493"></path></svg>