<?xml version="1.0" standalone="no"?><!DOCTYPE svg PUBLIC "-//W3C//DTD SVG 1.1//EN" "http://www.w3.org/Graphics/SVG/1.1/DTD/svg11.dtd"><svg t="1740817631897" class="icon" viewBox="0 0 1024 1024" version="1.1" xmlns="http://www.w3.org/2000/svg" p-id="15878" xmlns:xlink="http://www.w3.org/1999/xlink" width="16" height="16"><path d="M133.71 232.06l395.38 123.32 395.7-123.32-395.54-88.24z" fill="#E60012" p-id="15879"></path><path d="M133.71 232.25l25.97 524.71 369.41 193.38V355.78L133.71 232.25z m180.18 538.99c-26.46-10.8-104.89-64-111.56-175.11l91.13 30.67c2.61 19.62 6.61 41.28 14.65 51.56 13.08 16.64 8.47 17.77 29.33 30.22 25.33 15.11 48.89 0.89 52-11.56 2.58-10.34-10.22-47.11-42.22-65.78-49.31-28.76-80.89-65.33-101.78-90.67-20.15-24.43-34.57-82.23-28.89-108.44 8-36.89 24.31-49.78 67.11-49.78 52.52 0 107.71 38.68 133.55 60.45 26.89 22.66 45.66 73.83 50.89 116.44l-88.89-28.44c-3.18-18.5-11.59-45.37-21.78-53.78-10.19-8.41-29.57-21.1-45.96-13.82-16 7.11-6.32 28.29-2.04 35.15 4.44 7.11 48.61 40.87 76 54.67 53.33 40 95.04 103.12 94.43 144.75-2.42 164.13-138.75 84.58-165.97 73.47z" fill="#700000" p-id="15880"></path><path d="M529.33 355.78v594.56l374.12-194.56 21.59-523.53-395.71 123.53z m308.09 348.4l-69.33 33.78-42.67-179.56-37.33 222.22-68 31.56-53.36-318.2 67.59-24.91 25.33 171.56 34.22-194.22 67.11-24.89 35.56 158.67 23.56-184 67.56-25.78-50.24 333.77z" fill="#9A0000" p-id="15881"></path></svg>